<?xml version="1.0" standalone="no"?>
<!DOCTYPE svg PUBLIC "-//W3C//DTD SVG 1.1//EN" "http://www.w3.org/Graphics/SVG/1.1/DTD/svg11.dtd">
<svg version="1.1" xmlns="http://www.w3.org/2000/svg"
     width="192px" height="192px" viewBox="0 0 192 192"
     preserveAspectRatio="xMidYMid meet">
    <title>Logo 192x192</title>
    <g>
        <!-- Black circle background -->
        <circle cx="96" cy="96" r="96" fill="#000"/>

        <!-- White M Logo -->
        <g transform="translate(0,192) scale(0.043,-0.043)" fill="none" stroke="#fff" stroke-width="23">
            <path d="M1995 4449 c-587 -64 -1139 -366 -1506 -826 -604 -756 -652 -1819
      -119 -2627 329 -499 856 -849 1450 -963 185 -35 502 -43 701 -18 245 31 465
      97 694 209 445 218 803 576 1021 1021 112 229 178 449 209 694 26 200 17 516
      -19 704 -81 426 -283 818 -581 1126 -346 359 -761 578 -1250 662 -140 24 -458
      33 -600 18z"/>

            <!-- Just the M path in white -->
            <path d="M1684 3074 c420 -621 532 -782 542 -772 7 7 226 326 488 708 493
      720 489 716 570 736 25 6 28 4 23 -10 -8 -19 -1062 -1584 -1081 -1603 -8 -9
      -128 162 -496 707 l-485 718 -5 -1131 -5 -1132 -39 -63 c-21 -34 -43 -65 -47
      -68 -5 -3 -9 581 -9 1345 0 743 3 1351 8 1351 4 -1 245 -354 536 -786z" fill="#fff" stroke="none"/>

            <path d="M3290 1938 l0 -1353 -45 75 -45 75 0 1128 c0 621 -3 1126 -7 1123 -5 -2 -228 -329
      -498 -725 -269 -396 -493 -721 -497 -721 -3 0 -4 34 -1 76 l6 76 539 799 c297
      439 541 799 544 799 2 0 4 -609 4 -1352z" fill="#fff" stroke="none"/>
        </g>
    </g>
</svg>